# xmcd
#
# Track frame offsets:
#	150
#	18406
#	28575
#	40488
#	57766
#	73024
#	90634
#	105249
#	120918
#	136747
#	154693
#	173694
#
# Disc length: 2547 seconds
#
# Revision: 1
# Processed by: cddbd v1.5.2PL0 Copyright (c) Steve Scherf et al.
# Submitted via: audiograbber 1.83.01
#
DISCID=8b09f10c
DTITLE=Roy "Nico" Nicolaysen - Twisted World
DYEAR=2000
DGENRE=Country
TTITLE0=Old Hippie
TTITLE1=Here's a Quarter
TTITLE2=Twisted World
TTITLE3=Jesus in a Leather Jacket
TTITLE4=Anymore
TTITLE5=County Line
TTITLE6=Chattahoocie
TTITLE7=Help Me Hold On
TTITLE8=Too Little Too Late
TTITLE9=Get Out of My Life
TTITLE10=Bridge over trouble water
TTITLE11=Crystal Blue
EXTD=
EXTT0=
EXTT1=
EXTT2=
EXTT3=
EXTT4=
EXTT5=
EXTT6=
EXTT7=
EXTT8=
EXTT9=
EXTT10=
EXTT11=
PLAYORDER=
